<svg xmlns="http://www.w3.org/2000/svg" color-interpolation-filters="sRGB" style="margin:auto" viewBox="0 0 200 100">
  <defs>
    <linearGradient id="c" x1="0" x2="0" y1="1" y2="0">
      <stop offset="0" stop-color="#ff5857"/>
      <stop offset="1" stop-color="#f09819"/>
    </linearGradient>
    <filter id="a" filterUnits="userSpaceOnUse">
      <feColorMatrix values="0 0 0 0 0.99609375 0 0 0 0 0.99609375 0 0 0 0 0.99609375 0 0 0 1 0"/>
    </filter>
  </defs>
  <mask id="b">
    <g class="iconsvg-imagesvg" filter="url(#a)">
      <path fill="#333" fill-opacity="0" stroke-width="2" d="M0 0h86.4v86.4H0z" class="image-rect"/>
      <svg width="86.4" height="86.4" class="image-svg-svg primary" style="overflow:visible">
        <svg xmlns="http://www.w3.org/2000/svg" viewBox="-2 -2 68 68">
          <path fill-rule="evenodd"
                d="M64 32v32H32C14.327 64 0 49.673 0 32 0 14.327 14.327 0 32 0c17.673 0 32 14.327 32 32Z"/>
        </svg>
      </svg>
    </g>
  </mask>
  <rect width="100%" height="100%" fill="none" class="background"/>
  <rect width="100%" height="100%" fill="url(#watermark)" class="watermarklayer"/>
  <g fill="#333" class="icon-text-wrapper icon-svg-group iconsvg">
    <g class="iconsvg-imagesvg" mask="url(#b)" transform="translate(6 6)">
      <path fill="none" d="M0 0h86.4v86.4H0z" class="image-rect"/>
      <svg width="86.4" height="86.4" class="image-svg-svg primary" style="overflow:visible">
        <svg xmlns="http://www.w3.org/2000/svg" fill="#000" viewBox="-2 -2 68 68">
          <path fill-rule="evenodd"
                d="M64 32v32H32C14.327 64 0 49.673 0 32 0 14.327 14.327 0 32 0c17.673 0 32 14.327 32 32Z"/>
        </svg>
      </svg>
      <path fill="url(#c)" d="M0 0h98.4v98.4H0z" style="pointer-events:none" transform="translate(-6 -6)"/>
    </g>
    <path
      d="M79.151 56.04c1.12-2.1 1.81-3.98 2.06-5.68.11-.72.15-1.44.11-2.09-.03-.26-.11-.54-.29-.73.04-.03 0-.03-.03-.07-.08-.07-.18-.07-.29-.07-.11 0-.18 0-.26.04-.03 0-.03.03-.07.03-.18.11-.29.33-.32.54-.83 2.17-1.88 3.91-3.15 5.21-1.33 1.37-2.49 2.09-3.5 2.09-1.7-.14-1.37-2.42-1.16-3.72l.18-.97.15-1.05c.83-7.08.43-15.47-7.7-16.48-.25-.03-.54-.07-.83-.07-2.1 0-4.66 1.34-6 2.67-2.02-2.31-3.47-3.14-6.65-3.14-3.57.04-7.44 1.91-7.98 7.05l-2.02 19.69c-.37 3.5 1.69 5.96 5.27 5.96 4.34 0 6.14-2.57 6.72-5.28.58-3.14 3-16.04 6.83-16.04.51 0 .87.36 1.08 1.16.76 3.86-.28 6.94-.28 10.58-.29 3.62.14 6.15 1.37 7.66 1.05 1.31 2.38 2.1 4.01 2.1 5.6 0 10.33-4.73 12.75-9.39Zm26.6 9.57c5.63-.32 7.73-4.88 10.15-9.57 1.16-2.1 1.84-3.98 2.1-5.68.14-.9.14-1.73 0-2.49-.04-.25-.29-.51-.58-.51-.07 0-.15.04-.22.08-.21.14-.36.39-.4.57-.9 2.32-2.02 4.12-3.36 5.46-.86.83-1.98 1.84-3.25 1.84-1.7-.1-1.55-1.88-1.3-3.18l2.57-12.61c.76-3.86-1.3-6.39-5.17-6.39-6.79 0-6.79 4.15-7.15 7.62-.55 3.54-2.39 8.6-4.7 11.71-.8 1.05-1.63 1.59-2.39 1.59-2.81 0-.47-13.41.47-16.51 1.05-3.58-3.65-4.27-5.42-4.34-2.63 0-4.95 1.48-5.71 4.08-.75 2.64-1.33 5.28-1.73 7.95-.79 5.35-1.08 11.13 1.3 15.68 1.52 2.93 4.52 4.27 7.7 4.27 4.66 0 7.08-3.62 9.03-7.05.18 4.23 2.96 7.48 7.55 7.48h.51Zm34.07-.43h.29c6.11 0 12.14-9.69 12.94-14.82.14-.9.14-1.73.03-2.49-.03-.25-.29-.51-.58-.51-.07 0-.14.04-.21.08-.22.14-.36.39-.4.57-1.05 2.9-3.98 7.56-7.52 7.56-3.07 0-5.34-4.63-6.32-7.09l7.73-9.68c1.88-2.38 1.52-5.38-1.01-6.03-.5-.15-1.08-.22-1.73-.22-2.06 0-4.56.79-6.33 2.96l-2.71 3.36-1.12-2.85c-.68-1.59-3.36-3.72-6.21-3.72-.22 0-.4 0-.62.03-3.46.33-7.19.94-4.33 6.54l4.84 9.29-9.86 12.18c-2.93 3.61-1.3 4.4 1.62 4.91.15.04.26.04.44.04 1.87 0 5.2-1.63 6.46-3l5.46-5.78c2.56 3.36 4.19 8.45 9.14 8.67Zm16.73.25 1.05-.07c5.27-.76 8.85-4.66 11.31-9.32 1.08-2.1 1.77-3.98 2.02-5.64.11-.8.15-1.55.07-2.24 0-.18-.03-.4-.14-.51-.04-.07-.11-.11-.11-.18-.11-.07-.22-.07-.32-.07-.08 0-.15 0-.22.04-.04 0-.04.03-.07.03-.18.11-.29.33-.33.54-.83 2.17-1.88 3.91-3.14 5.21-1.34 1.37-2.53 2.06-3.51 2.09-.94 0-1.41-.83-1.33-2.49.07-1.05.21-2.2.39-3.4.73-4.84 1.85-9.68 3.04-14.49l1.91-.1c2.57-.08 3.47-2.03 3.73-3.76.36-2.39-1.34-2.93-2.35-3.04l-1.63-.11c.29-1.3.58-2.52.83-3.68.51-2.2-2.2-4.59-5.38-4.77-.51-.04-1.05-.07-1.56-.07-3.25 0-6.5.97-7.19 7.55l-1.8-.15h-.51c-2.89 0-4.98 1.74-5.02 5.5-.04 2.53 2.31 3 4.3 3l1.88-.08c-.58 4.59-1.12 9.47-1.52 13.77-.36 4.26-.43 7.7-.22 10.26.4 3.47 1.95 6.18 5.82 6.18Z"
      class="tp-name iconsvg-namesvg"/>
    <path
      d="M46.357 75.19h34.762v1H46.357zm84.922 0h34.762v1h-34.762zm-47.163 3.416.6-.7q.42.45.99.72.57.27 1.19.27.78 0 1.21-.36.43-.35.43-.93 0-.3-.1-.51-.1-.21-.28-.36-.17-.15-.41-.27-.24-.12-.52-.25l-1.13-.49q-.27-.12-.56-.29-.29-.17-.52-.41-.22-.24-.37-.57-.14-.33-.14-.76 0-.44.18-.83.19-.38.52-.66t.78-.44q.45-.16.99-.16.71 0 1.31.27.6.27 1.02.71l-.54.64q-.36-.34-.8-.54-.44-.2-.99-.2-.66 0-1.06.31-.4.3-.4.84 0 .29.11.49t.31.35q.19.15.42.26.22.11.46.21l1.12.48q.34.14.64.33t.51.43q.22.25.34.58.13.33.13.76 0 .47-.19.88-.18.4-.53.71-.35.31-.84.48-.49.17-1.12.17-.82 0-1.53-.31-.71-.31-1.23-.85Zm8.38 1.02v-7.03h-2.38v-.84h5.76v.84h-2.37v7.03h-1.01Zm5.3-3.2h2.37l-.37-1.2q-.22-.66-.41-1.32l-.39-1.34h-.04q-.18.69-.38 1.34-.19.66-.4 1.32l-.38 1.2Zm3.36 3.2-.74-2.4h-2.87l-.75 2.4h-1.02l2.66-7.87h1.13l2.66 7.87h-1.07Zm3.18-7.07v2.93h1.32q.93 0 1.42-.38.49-.38.49-1.14 0-.78-.49-1.1-.49-.31-1.42-.31h-1.32Zm4.46 7.07h-1.13l-1.9-3.32h-1.43v3.32h-.99v-7.87h2.46q.6 0 1.11.11.51.12.87.38.37.26.57.68.21.42.21 1.04 0 .92-.48 1.47-.48.55-1.29.76l2 3.43Zm2.91 0v-7.03h-2.37v-.84h5.76v.84h-2.38v7.03h-1.01Zm4.8 0v-7.87h4.54v.84h-3.54v2.47h2.99v.85h-2.99v2.86h3.66v.85h-4.66Zm7.32-7.07v2.93h1.32q.93 0 1.42-.38.49-.38.49-1.14 0-.78-.49-1.1-.49-.31-1.42-.31h-1.32Zm4.45 7.07h-1.12l-1.9-3.32h-1.43v3.32h-.99v-7.87h2.46q.6 0 1.11.11.51.12.87.38.37.26.57.68.21.42.21 1.04 0 .92-.48 1.47-.48.55-1.29.76l1.99 3.43Z"
      class="tp-slogan iconsvg-slogansvg"/>
  </g>
</svg>
